<svg width="390" height="757" viewBox="0 0 390 757" xmlns="http://www.w3.org/2000/svg" xmlns:xlink="http://www.w3.org/1999/xlink"><title>Page 1</title><defs><path id="a" d="M0 .778h389.818V757H0z"/></defs><g fill="none" fill-rule="evenodd"><path fill="#A4172B" d="M178.523 130.514h9.282v-1.289h-9.282z"/><path stroke="#A4172B" stroke-width=".591" d="M187.812 130.514h-9.29v-1.289h9.29z"/><path d="M167.905 526.653l-4.371 2.064v79.003l-11.206 3.3v-83.674s-.273-6.75 3.417-9.776c3.684-3.025 8.469-1.646 10.244.686 1.783 2.34 2.33 6.057 1.916 8.397zm-1.746 94.47l-16.027 4.494v-6.982l16.027-4.485v6.974zm-28.86-87.861l-4.371 2.064v79.003l-11.205 3.3v-83.682s-.267-6.743 3.424-9.768c3.683-3.032 8.469-1.654 10.244.686 1.775 2.34 2.322 6.057 1.908 8.397zm-2.1 95.201l-16.028 4.486v-6.967l16.028-4.493v6.974zm-26.316-88.734l-4.371 2.064v78.996l-11.206 3.308v-83.682s-.266-6.743 3.425-9.768c3.683-3.033 8.468-1.654 10.244.685 1.775 2.34 2.322 6.058 1.908 8.397zm-2.138 94.97l-16.027 4.494v-6.975l16.027-4.493v6.975zM61.577 519.18V757l137.71-29.864v-237.82L61.577 519.18zm-31.313-21.061c7.744 2.458 13.52 8.144 14.925 15.066l7.596-1.677c-.014-2.98-1.094-6.996-6.878-6.639l-.178-3.86 14.209-2.384.273 11.251 17.16-3.785c.125-2.995-.659-7.66-6.872-7.28l-.185-3.852 14.209-2.391.303 11.884 17.87-3.934c.029-2.995-.955-7.205-6.88-6.848l-.184-3.852 14.208-2.384.288 11.445 17.7-3.897c.103-3.003-.725-7.555-6.872-7.183l-.184-3.852 14.208-2.384.296 11.78 17.07-3.763c.31-2.832.104-8.62-6.797-8.204l-.185-3.852 14.208-2.384.326 12.786 18.89-4.158c.258-2.928-.17-8.293-6.827-7.898l-.178-3.852 14.208-2.384.311 12.473 13.343-2.936v-18.344L30.264 498.119z" fill="#A4172B"/><mask id="b" fill="#fff"><use xlink:href="#a"/></mask><path d="M208.877 444.133l-.126-.194s-6.553-20.647-9.016-62.208c-2.293-38.753-1.501-94.65-3.15-139.289l13.808.924s2.004 26.615 10.384 58.907c7.988 30.78 12.996 46.39 18.336 59.862l-20.155.879s-7.84-1.282-8.935 5.506c-1.087 6.788-2.174 19.268 2.374 30.095 4.557 10.826 18.58 27.523 33.52 36.882l.91-15.23s-11.841-5.871-7.1-22.569c0 0 2.359-2.936 3.091-4.955l7.648-3.86s9.112 1.841 6.198-8.62l3.461-6.423s2.36 1.468 2.36 7.89v38.537s7.84 11.378 20.59 18.896l.237-3.733c20.754 19.492 92.66 49.795 92.66 49.795l-167.095-41.092zm-18.853-253.87c8.86-4.352 15.08-14.515 15.08-26.354 0-8.807-3.446-16.683-8.86-21.936 12.685.88 22.714 11.415 22.714 24.32 0 10.707-6.908 19.782-16.501 23.068-6.161 11.765-3.38 22.39-2.175 25.848l-6.826-1.744v-22.867c-1.169-.06-2.33-.127-3.432-.335zm4.889-158.475l3.639 80.739h-5.821l2.182-80.74zm10.931 85.515c4.002 5.506-.37 8.07-.37 8.07h-8.017c-2.552 4.403 0 12.48 0 12.48h-3.639c-1.087-3.301-.732-20.55-.732-20.55h12.758zm183.974 366.454c-4.009-1.84-27.506-13.024-61.936-29.178-27.543-12.92-40.02-24.99-43.919-29.312l.207-3.167s-7.477-3.852-11.479-10.826c0 0-1.094-8.442 2.005-11.743 0 0 1.634-1.833 1.997-3.673l7.84-4.039s3.461.924 5.096-.909c1.642-1.84 2.367-4.776 1.094-7.16-1.272-2.384-1.634-5.693-1.634-5.693l5.643.187 2.914-7.34-3.461-.365s-7.285-13.583-28.964-9.544l-18.194.79c-3.321-8.48-13.81-36.45-20.784-68.684-8.38-38.723-8.742-49.914-8.565-56.337 0 0 .304-3.04 2.81-4.098l3.588.991a5.813 5.813 0 0 0 2.433.537c3.329 0 6.014-2.712 6.014-6.058a6.03 6.03 0 0 0-4.934-5.946l-22.647-5.79a24.964 24.964 0 0 1-2.197-10.282c0-3.83.85-7.301 2.197-10.29a31.352 31.352 0 0 0 20.207-29.349c0-14.864-10.266-27.285-24.046-30.526v-4.888h1.11a8.298 8.298 0 0 0 1.62.179c5.133 0 9.297-4.188 9.297-9.359 0-5.17-4.164-9.358-9.297-9.358-.489 0-.947.074-1.413.149L195.638.776l-12.175 111.997a9.157 9.157 0 0 0-2.034-.246c-5.133 0-9.29 4.187-9.29 9.358s4.157 9.359 9.29 9.359c.6 0 1.176-.067 1.739-.18h1.538v5.455c-12.662 3.986-21.856 15.893-21.856 29.96 0 13.97 9.06 25.788 21.582 29.856 1.198 2.869 1.916 6.192 1.916 9.783a25.25 25.25 0 0 1-1.953 9.754l-22.455 8.226.023.082a6.065 6.065 0 0 0-3.758 5.61c0 3.346 2.685 6.05 6.013 6.05 1.14 0 2.19-.335 3.1-.894l26.027-9.634.325 8.412-20.162 6.527s-1.339 36.078-19.4 94.412c-3.033 9.783-5.858 18.583-8.61 26.622l32.108 1.729s5.192-.552 6.56 6.609c1.36 7.153 1.635 20.915-2.19 28.626-3.823 7.705-12.3 24.492-28.69 37.71l-1.094-15.416s8.742-1.379 8.195-17.07c0 0 .547-11.006-12.292-14.314 0 0-4.645 1.654-6.013-3.576 0 0-2.456-3.577 5.192-15.14h-3.003s-.718-.455-1.398-1.662c-.052.141-.104.29-.155.432-2.508-2.4-8.04-7.622-9.926-8.68 0 0-17.485-7.429-31.42 11.288h-5.739l4.098 10.461s-3.824 11.288 5.192 9.634l8.202 3.852s6.553 5.23 4.371 14.314c-2.189 9.082-1.915 9.634-8.202 13.486v4.403s.133.03.325.06c-5.325 5.529-11.316 10.737-18.357 15.908C57.927 468.438 39.074 476.693 0 486.603l5.192 9.359 200.549-45.079 178.796 44.438 5.281-11.564z" fill="#A41F35" mask="url(#b)"/><path d="M227.195 470.64c.902 0 1.76.202 2.537.552l.333-5.737-13.935-3.353v14.313l4.423 1.118c.252-3.852 3.114-6.892 6.642-6.892m24.866 6.056a6.21 6.21 0 0 1 2.537.551l.333-5.737-13.935-3.353v14.321l4.416 1.11c.251-3.852 3.114-6.892 6.65-6.892m22.405 4.677c.895 0 1.752.209 2.536.559l.333-5.745-13.934-3.345v14.313l4.415 1.11c.252-3.852 3.114-6.892 6.65-6.892m23.77 5.783c.902 0 1.76.201 2.536.551l.333-5.737-13.934-3.353v14.313l4.423 1.118c.251-3.852 3.114-6.892 6.642-6.892m23.773 5.505a6.21 6.21 0 0 1 2.536.552l.333-5.738-13.934-3.353v14.314l4.415 1.117c.252-3.852 3.114-6.892 6.65-6.892m22.13 5.228c.902 0 1.76.209 2.537.559l.332-5.745-13.934-3.345v14.313l4.423 1.11c.251-3.852 3.114-6.892 6.642-6.892M226.968 603.958l10.932 3.301v-83.674s.732-9.359-6.916-11.385c0 0-9.112-1.833-8.934 10.647l4.563 1.84.355 79.271zm30.785 7.338l10.932 3.3v-83.674s.725-9.358-6.923-11.385c0 0-9.112-1.833-8.927 10.648l4.556 1.84.362 79.271zm28.417 6.055l10.931 3.301v-83.674s.725-9.359-6.923-11.385c0 0-9.112-1.833-8.927 10.647l4.556 1.84.363 79.271zm-45.9 5.783l-15.664-4.865v-6.796l15.665 4.873zm30.966 7.156l-15.665-4.865v-6.795l15.665 4.873zm28.6 5.687l-15.666-4.866v-6.788l15.666 4.866z" fill="#A4172B"/></g></svg>